<?xml version="1.0" encoding="UTF-8" standalone="no"?>
<svg width="1000px" height="1321px" viewBox="0 0 1000 1321" version="1.1" xmlns="http://www.w3.org/2000/svg" xmlns:xlink="http://www.w3.org/1999/xlink">
    <!-- Generator: Sketch 3.6.1 (26313) - http://www.bohemiancoding.com/sketch -->
    <title>Slice 1</title>
    <desc>Created with Sketch.</desc>
    <defs></defs>
    <g id="Page-1" stroke="none" stroke-width="1" fill="none" fill-rule="evenodd">
        <g id="icon-magnifyer-brushed" fill="#000000">
            <path d="M905.780256,1309.97554 C904.882541,1310.572 904.300822,1309.69528 903.123021,1307.92028 C904.020735,1307.32382 904.602454,1308.20773 905.780256,1309.97554 L905.780256,1309.97554 Z M927.066864,1289.45166 C929.415286,1292.98729 930.585906,1294.7551 931.48362,1294.15864 C929.142381,1290.62302 927.971761,1288.85521 927.066864,1289.45166 L927.066864,1289.45166 Z M917.716269,1238.34318 L917.13455,1237.46646 L916.236836,1238.06292 L916.818555,1238.94683 L917.716269,1238.34318 L917.716269,1238.34318 Z M958.982414,1271.27768 C958.903415,1271.10521 958.817234,1270.91837 958.738235,1270.75309 L958.75978,1270.93993 L958.982414,1271.27768 L958.982414,1271.27768 Z M947.987205,1278.09742 L950.335627,1281.63304 C950.64444,1280.15268 952.719957,1281.32403 954.479477,1283.97575 C957.136712,1286.03102 957.725613,1286.91492 958.623328,1286.31847 C956.576538,1281.30248 952.43987,1278.95976 947.987205,1278.09742 L947.987205,1278.09742 Z M962.860541,1277.12728 L959.9304,1272.71493 L958.982414,1271.28487 C960.09558,1273.64914 961.180019,1276.79671 962.860541,1277.12728 L962.860541,1277.12728 Z M966.350855,1286.27535 C967.24857,1285.67889 967.557383,1284.19853 965.797863,1281.54681 L962.860541,1277.12728 C961.962826,1277.72373 962.824632,1280.97191 966.350855,1286.27535 L966.350855,1286.27535 Z M892.012905,1184.18774 C892.271447,1183.94341 892.587442,1183.71345 892.932165,1183.48349 L892.03445,1184.07995 L892.012905,1184.18774 L892.012905,1184.18774 Z M895.180042,1198.55302 C895.768943,1199.43692 896.357844,1200.32083 897.255558,1199.72437 L896.666657,1198.84047 C896.077757,1197.94937 896.077757,1197.94937 895.180042,1198.55302 L895.180042,1198.55302 Z M882.238588,1182.95171 C883.136303,1182.35525 883.445117,1180.87489 882.274497,1179.10707 C881.376782,1179.70353 881.060787,1181.17671 882.238588,1182.95171 L882.238588,1182.95171 Z M888.723679,1188.82286 L890.210294,1189.11031 L890.519108,1187.62994 L889.039674,1187.3425 L888.723679,1188.82286 L888.723679,1188.82286 Z M887.344789,1177.00151 C887.93369,1177.88541 887.624876,1179.36578 884.931732,1181.15515 L886.109534,1182.92296 L887.007248,1182.32651 L888.213777,1180.24968 L888.802678,1181.13359 C889.384397,1182.01031 889.973297,1182.9014 890.871012,1182.30495 L887.93369,1177.88541 L887.344789,1177.00151 L887.344789,1177.00151 Z M891.732818,1185.56031 L892.020087,1184.18774 C891.596365,1184.58298 891.36655,1185.01416 891.732818,1185.56031 L891.732818,1185.56031 Z M898.110182,1202.96536 C897.801369,1204.44573 898.390269,1205.32963 898.97917,1206.21354 L901.327592,1209.74917 L904.293641,1210.32406 C904.602454,1208.85089 902.842934,1206.19198 900.494512,1202.65636 C899.007897,1202.36891 899.007897,1202.36891 898.110182,1202.96536 L898.110182,1202.96536 Z M995.716895,1260.38336 L995.408081,1261.85653 C995.996982,1262.74044 996.585882,1263.62435 995.680986,1264.2208 C995.336264,1269.5458 983.428977,1271.09084 980.42702,1274.36058 C978.358685,1273.18922 975.974355,1273.49823 975.665542,1274.97859 L974.186108,1274.69833 L973.008306,1272.93052 L972.699493,1274.41088 C972.390679,1275.89124 972.390679,1275.89124 970.904063,1275.60379 L964.418973,1269.72546 L963.521259,1270.32191 C961.761738,1267.67019 961.172837,1266.78629 960.275123,1267.38275 C958.795689,1267.10248 958.795689,1267.10248 958.479693,1268.57566 L958.738235,1270.76027 C957.96261,1269.22242 957.158258,1268.19479 956.102545,1268.89185 C954.61593,1268.6044 954.61593,1268.6044 955.204831,1269.48831 L954.896017,1270.96149 L954.587203,1272.44185 L955.176104,1273.32576 C955.765004,1274.20967 955.765004,1274.20967 956.662719,1273.61321 L958.42224,1276.26493 C957.524525,1276.86138 956.073818,1272.7293 953.380675,1274.51867 C952.518869,1271.2705 951.929968,1270.38659 950.134539,1271.5795 L951.929968,1270.38659 C951.341067,1269.50268 950.752166,1268.61878 949.272733,1268.33133 L948.691014,1267.45461 L946.895584,1268.64752 C946.306684,1267.76362 945.408969,1268.36007 944.820068,1267.47617 C942.715825,1270.14944 947.132581,1274.85643 946.823767,1276.33679 C945.926053,1276.93325 945.344333,1276.04934 943.857718,1275.76189 L944.166532,1274.28153 L943.886445,1271.91726 C943.304726,1271.03335 941.818111,1270.7459 940.331495,1270.45845 C939.433781,1271.05491 939.433781,1271.05491 940.022681,1271.93882 L940.295587,1274.30309 C940.884487,1275.18699 941.473388,1276.0709 941.157393,1277.55126 L941.746293,1278.43517 L942.644008,1277.83871 C942.328012,1279.31908 945.882962,1280.77788 945.58133,1282.25825 C944.683616,1282.8547 943.505814,1281.08689 942.615281,1281.68335 L944.683616,1282.8547 C945.265335,1283.73142 945.265335,1283.73142 944.956521,1285.21179 C945.854235,1284.61533 945.854235,1284.61533 945.265335,1283.73142 C946.75195,1284.01887 947.340851,1284.90278 949.100371,1287.5545 C948.202657,1288.15096 947.893843,1289.63132 948.482744,1290.51523 C945.7896,1292.3046 942.543464,1289.36543 937.846621,1282.29418 C936.087101,1279.64246 934.018766,1278.4711 932.805056,1280.54792 L932.216155,1279.66402 L931.94325,1277.29975 L930.456635,1277.0123 L929.867734,1276.12839 L929.278833,1275.24448 L925.170891,1269.05714 C926.068606,1268.46068 928.417027,1271.99631 929.314742,1271.39985 C930.52127,1269.32303 929.932369,1268.43912 926.96632,1267.86422 C925.479705,1267.57677 923.99309,1267.28932 923.411371,1266.40542 L925.2068,1265.2125 C924.625081,1264.33578 924.933895,1262.85542 925.831609,1262.25178 L921.414853,1257.54479 C920.825953,1256.66089 919.928238,1257.25734 919.346519,1256.37344 C916.998098,1252.83781 915.827478,1251.07719 916.136292,1249.59682 L918.204626,1250.76818 C920.553047,1254.3038 918.549348,1245.44318 920.89777,1248.97881 L922.075571,1250.74662 L923.2821,1248.6698 L922.693199,1247.78589 L919.174158,1242.48964 C918.585257,1241.60573 918.585257,1241.60573 920.071872,1241.89318 L921.867301,1240.70027 L917.759359,1234.51292 C914.822037,1230.09339 913.069698,1227.44167 911.583083,1227.15422 C909.787654,1228.34713 913.586782,1236.01484 914.757402,1237.78266 C914.168501,1236.89875 914.168501,1236.89875 913.270787,1237.49521 L911.475357,1238.68812 C910.577643,1239.28458 909.407023,1237.51677 907.920408,1237.22932 C907.022693,1237.82577 908.193313,1239.5864 910.541734,1243.12203 L908.193313,1239.5864 C906.124978,1238.41504 905.536078,1237.53114 904.638363,1238.1276 C902.842934,1239.32051 904.013554,1241.08832 906.677971,1243.14359 C908.746305,1244.31494 909.335206,1245.19885 908.437491,1245.7953 C909.026392,1246.67921 909.924107,1246.08275 910.821821,1245.4863 C911.410722,1246.3702 911.094726,1247.85057 909.615293,1247.56312 C910.204193,1248.44702 912.82552,1254.34692 912.516706,1255.82728 L918.448804,1256.97708 L920.208325,1259.6288 C918.132809,1258.45745 916.653375,1258.17 915.755661,1258.76645 C915.138033,1261.72718 920.452503,1265.83771 921.041404,1266.72161 L920.143689,1267.31807 C921.041404,1266.72161 921.041404,1266.72161 921.623123,1267.60552 L920.725409,1268.20198 L921.314309,1269.08588 C923.07383,1271.7376 928.115395,1273.48386 929.874916,1276.13558 L931.914523,1281.15157 L933.401139,1281.43901 L933.990039,1282.32292 L935.160659,1284.09073 C936.058374,1283.49428 936.647275,1284.37818 937.817894,1286.146 L937.193085,1289.10672 C935.713651,1288.82646 930.9809,1285.59984 931.296896,1284.11229 L929.221379,1282.94094 L925.077529,1280.59823 L923.899727,1278.83041 L924.524537,1275.86968 C923.935636,1274.98578 918.032265,1269.99135 917.450546,1269.10744 L914.757402,1270.89681 L915.339121,1271.77353 L916.516922,1273.54135 C917.105823,1274.42525 917.694724,1275.30916 919.174158,1275.59661 L918.865344,1277.07697 C919.763058,1276.48051 921.249674,1276.76796 921.831393,1277.65187 L920.933678,1278.24833 C923.002013,1279.41968 924.172633,1281.1875 923.871,1282.66786 C926.837049,1283.24276 927.390042,1287.9713 925.594612,1289.16421 C923.835092,1286.51249 920.588956,1283.57333 920.000055,1282.68942 L919.102341,1283.28588 C918.204626,1283.88233 918.204626,1283.88233 917.615725,1282.99843 C916.445105,1281.23061 916.753919,1279.75025 917.651634,1279.15379 C916.165018,1278.86634 915.576118,1277.98244 916.473832,1277.38598 L912.329982,1275.04327 C911.123453,1277.12009 912.882974,1279.77181 917.608543,1282.99843 C918.197444,1283.88233 918.197444,1283.88233 917.29973,1284.47879 L916.990916,1285.95915 L922.578291,1292.43395 C926.097333,1297.73739 927.856853,1300.38911 926.959139,1300.98557 C924.265995,1302.77494 919.260338,1297.18405 911.633355,1285.70045 C910.735641,1286.29691 913.084062,1289.83253 918.362624,1297.78769 L916.287108,1296.61634 C916.287108,1296.61634 915.705388,1295.73962 914.218773,1295.44498 L913.629872,1294.56107 L913.349785,1292.1968 L912.452071,1292.79326 L911.870352,1291.91654 C912.179166,1290.43618 908.351311,1286.6131 906.864695,1286.32565 L908.624216,1288.97737 L907.726501,1289.57383 L908.904303,1291.34164 L911.216816,1298.7219 C909.7302,1298.43445 909.421386,1299.91482 909.105391,1301.39518 L909.385478,1303.75945 C908.487763,1304.35591 907.001148,1304.06846 906.103433,1304.66492 L900.480149,1302.03475 L901.06905,1302.91866 C900.171335,1303.51512 900.171335,1303.51512 900.760236,1304.39903 L899.273621,1304.11158 L898.375906,1304.70803 C897.478191,1305.30449 897.758278,1307.66876 899.517799,1310.32048 C895.654035,1310.34204 887.68233,1304.17625 892.379173,1311.2475 L894.138693,1313.89922 C893.549792,1313.01532 888.824223,1309.7887 888.235322,1308.90479 C887.337607,1309.50125 887.337607,1309.50125 886.755888,1308.61734 C885.269273,1308.32989 885.269273,1308.32989 884.680372,1307.44599 L883.502571,1305.67817 C882.604856,1306.27463 882.296042,1307.755 881.987228,1309.23536 C884.644464,1311.29062 886.09517,1315.4227 888.134778,1320.43869 C886.339349,1321.63161 883.093213,1318.69244 878.985271,1312.50509 L880.744791,1315.15681 C879.258176,1314.86936 879.258176,1314.86936 878.676457,1313.98546 C876.608123,1312.8141 875.121507,1312.52665 873.914979,1314.60347 C870.977657,1310.18394 868.909322,1309.01259 866.532174,1309.32159 C866.22336,1310.79477 866.805079,1311.67868 867.39398,1312.56977 L868.255786,1315.81795 C867.358071,1316.4144 866.776352,1315.53768 865.598551,1313.76269 C865.00965,1312.87878 861.145886,1312.90034 859.666453,1312.61289 C854.043169,1309.98273 848.139797,1304.9883 841.683434,1295.26532 C839.335013,1291.7297 831.155037,1275.51756 826.156562,1269.91949 L825.567662,1269.03558 L824.985943,1268.15886 L824.397042,1267.27495 L818.529579,1258.43589 L817.940678,1257.55198 L816.762877,1255.78417 C815.003356,1253.13245 814.723269,1250.76818 814.14155,1249.89146 C804.755047,1235.74895 786.010766,1203.61931 777.205981,1190.36071 C776.61708,1189.47681 772.200325,1184.76982 770.440804,1182.11811 C768.092383,1178.58248 763.747444,1166.18623 760.501308,1163.24706 L759.014693,1162.95961 C759.639502,1159.99888 754.669754,1150.56336 744.694349,1135.53695 L731.199904,1115.2071 L724.74354,1105.48413 C720.915685,1101.66105 718.323086,1091.91652 716.563565,1089.2648 C698.099371,1059.49943 694.336152,1047.98709 689.646491,1040.91584 C684.367929,1032.96068 679.082185,1025.00552 674.076529,1019.41463 L662.341604,1001.7365 L662.650417,1000.25614 L660.890897,997.604418 C658.233662,995.549156 652.057385,988.190454 650.606678,984.058371 L650.017778,983.174465 L637.693952,964.612428 C635.34553,961.076802 630.375782,951.641279 628.616262,948.98956 L624.50832,942.802214 L623.919419,941.918308 L621.570998,938.382682 L613.391022,922.163357 L612.802121,921.27945 C613.347932,918.670848 610.769696,912.950608 605.764039,905.009821 C603.379709,905.900914 600.902017,906.95729 598.2376,907.826824 C595.408003,908.660427 592.470681,909.529961 589.497451,910.399495 C577.604528,913.884818 565.093977,917.413258 556.684187,919.389471 C552.439792,920.136839 552.245886,919.073277 547.987128,919.73441 L539.46243,920.999187 C535.347306,922.623276 526.7867,923.852121 522.52076,924.441392 L514.060698,926.626007 C509.880939,928.178233 505.507273,928.192605 501.126426,927.488354 L496.673762,925.698983 C492.379095,925.91457 492.429367,926.920642 488.113155,927.121857 C481.082255,927.323071 473.555815,927.941087 465.483566,927.711128 L465.483566,926.12297 C451.744942,925.943315 437.59696,924.577931 433.165841,923.190988 C432.016766,923.076008 427.39174,922.623276 422.192177,922.113053 C419.578032,921.83279 416.84898,921.624389 414.270744,921.229147 C411.627872,920.596758 409.214815,920.014673 407.405023,919.5835 C402.543,918.30435 397.451163,916.069432 389.989359,913.166195 C390.183266,914.086032 385.357152,912.943421 382.664008,910.859414 L377.708624,908.969435 L375.230932,908.020853 C375.072934,907.086642 380.021137,908.976621 379.848775,908.035225 L379.676414,907.101015 C379.504053,906.166805 377.055088,905.232595 374.59894,904.291198 L372.157157,903.356988 L372.006341,902.422778 C371.848343,901.488568 366.677507,897.758914 366.548236,896.839076 C364.106452,895.876121 356.623103,891.32005 354.210047,890.263674 L353.886869,887.52572 C353.563692,884.787765 348.852486,883.307401 348.945848,884.212867 L348.852486,883.307401 L346.453793,882.114487 L345.031813,880.454467 C343.351291,879.944245 341.764132,879.448395 340.413969,878.995662 C330.187204,875.481595 323.364573,873.081394 323.630297,872.053763 C315.637046,869.29425 296.253593,862.539192 296.519316,861.870872 C286.220734,858.32806 276.740868,852.722799 271.210946,847.749927 C271.210946,847.749927 281.832705,852.686868 292.454464,857.630995 C297.797662,860.031197 303.01877,862.711661 307.234437,863.976438 C311.371106,865.442429 314.136067,866.419757 314.136067,866.419757 L320.578067,869.826031 C323.975019,871.018945 327.386335,872.204673 327.048794,873.225118 C327.048794,873.225118 325.720176,872.772386 323.680569,872.068135 C326.689708,874.238377 326.711253,874.238377 327.048794,873.225118 L330.804832,873.397588 L333.89297,875.603761 C333.89297,875.603761 335.178497,876.049307 337.103197,876.710441 C338.877081,877.285339 341.168049,878.169246 343.581106,878.744144 L341.333229,876.12117 C338.948899,874.928255 338.941717,874.928255 336.492751,872.844248 L334.065331,870.767427 L334.058149,870.652447 C315.141508,863.732106 297.553483,856.157818 292.547827,852.924014 C290.910395,852.226949 284.339124,849.424319 276.949138,846.269563 C273.264917,844.667033 269.322155,843.057317 265.78875,841.375739 C262.384616,839.457015 259.267751,837.696388 256.940875,836.381308 C250.764599,832.752261 245.141314,828.181817 236.5448,821.80763 C235.984626,822.691536 229.750895,819.191842 227.603562,816.008341 L221.851007,811.804395 L218.97832,809.698829 C219.60313,808.822109 225.33414,813.018868 225.944586,812.127776 L226.555032,811.236683 C227.158296,810.352776 224.314336,808.268769 221.477558,806.184762 L218.647961,804.107941 L219.279952,803.231221 C219.904762,802.3545 215.54546,796.468977 216.206178,795.613815 C213.405308,793.515435 206.316954,785.718374 203.645355,783.555318 L205.692144,781.054509 C207.738934,778.546515 201.99356,774.824047 201.289752,775.643277 L201.986379,774.81686 L199.465596,772.546011 L197.260809,764.74895 C194.75439,762.485287 194.75439,762.4781 192.980506,759.423952 L191.235349,756.384176 L192.707601,754.810391 C194.179852,753.236606 192.441877,750.204016 185.856243,742.780639 L189.662553,738.971936 C190.423815,738.210196 190.423815,738.210196 192.82969,740.39481 L195.242747,742.579425 L197.490624,740.251085 C198.984421,738.706046 199.731319,737.922746 198.122615,735.012322 L205.218151,741.429627 L205.957868,740.639142 C204.3348,737.728718 205.692144,731.685097 209.031643,741.968595 C212.112599,743.298048 212.105417,743.298048 212.830771,742.49319 L214.281478,740.89066 L213.41249,737.204123 C215.725003,739.295317 215.732184,739.302503 218.755687,740.581652 L224.773966,743.118392 L223.186806,740.236713 L226.878209,740.667887 C226.878209,740.667887 229.542626,743.448959 232.207043,746.23003 C233.49257,747.688835 234.979185,748.888936 236.077988,749.808774 C237.176791,750.735798 237.909326,751.361 237.909326,751.361 C236.099533,748.702094 236.781796,747.861305 237.456878,747.020516 L238.80704,745.346124 C236.918249,742.852501 234.735007,736.011209 236.020534,730.053823 C238.189413,732.02285 238.196594,732.030036 241.062099,733.179833 C241.751544,732.353417 244.602686,733.496028 245.284949,732.655238 C249.902793,736.198051 252.962204,736.98135 254.262095,735.292585 C254.262095,735.292585 253.357198,732.964246 252.452302,730.643094 C251.554588,728.336313 250.735872,725.986415 250.735872,725.986415 C250.6856,726.065464 255.016175,725.19593 255.016175,725.19593 C258.63576,725.159999 259.296478,724.312023 262.197892,725.088136 L266.672101,728.365058 L267.318456,727.509896 C267.96481,726.647549 266.384833,724.14674 262.635976,720.086519 C263.303876,719.238544 263.303876,719.238544 261.766989,716.802411 L264.639675,717.549779 C266.155018,719.978726 268.359805,721.588441 270.550228,723.198157 L272.740652,724.807873 C289.014422,734.775177 296.928674,737.161006 297.431394,736.37052 C304.354569,740.430741 309.496678,742.270417 313.302988,740.77568 C313.302988,740.77568 314.150431,741.285903 315.421595,742.05483 C316.678395,742.852501 318.380462,743.86576 320.226163,744.605942 C323.831385,746.251589 327.429425,747.897236 327.429425,747.897236 C330.29493,748.033774 330.287748,748.026588 332.67926,749.133268 L337.440738,751.353814 C338.094274,749.87345 341.606134,750.038733 347.832682,751.943085 C354.353681,753.150371 363.704276,755.773346 375.870104,760.178506 C375.819832,760.350976 381.184575,760.415652 381.184575,760.415652 L386.211776,761.608566 C391.993058,762.442169 398.499694,763.556035 405.738864,764.993281 C413.136033,765.640042 421.294463,766.38741 430.19261,767.486904 C434.623729,768.255831 439.327753,768.183968 444.211321,768.277389 C449.087707,768.435486 454.16518,768.60077 459.443742,768.773239 C461.461804,768.967268 463.522957,768.960081 465.605655,768.888219 L465.605655,768.895405 L466.927091,768.967268 C469.771051,768.967268 472.615011,768.679818 475.423062,767.565952 C476.83786,767.486904 481.793245,767.479718 487.488346,767.486904 L496.214132,767.486904 C499.05091,767.300062 501.679418,766.840143 503.790843,766.55988 C509.406945,765.711905 515.906399,764.727391 523.282022,763.606339 C530.607373,762.240955 538.564715,759.610794 547.505953,757.440552 C549.732285,756.865653 552.016071,756.276382 554.350129,755.672739 C556.605188,754.803205 558.903337,753.919298 561.25894,753.013833 C565.977328,751.253206 570.896804,749.413531 576.031732,747.494807 C581.281567,745.885091 586.287223,743.118392 591.58733,740.50979 C596.894619,737.944305 602.402996,735.278213 608.11246,732.511514 C610.561426,731.081454 624.501138,721.480648 631.812126,717.341378 C634.34009,716.069415 642.54161,708.164561 649.392968,703.335413 C649.392968,703.335413 652.797102,700.870535 656.208417,698.412844 C657.97512,697.270233 659.361191,695.624586 660.574901,694.611327 C661.738339,693.540579 662.513965,692.829142 662.513965,692.829142 C662.513965,692.829142 667.720709,688.107788 672.927454,683.386433 C675.555962,681.050908 678.184471,678.715383 680.159443,676.961942 C681.911782,674.992915 683.082401,673.677834 683.082401,673.677834 L686.824076,669.473889 C686.824076,669.473889 689.416676,666.606582 693.301984,662.294843 C695.262593,660.160532 697.553561,657.66691 700.002526,654.993632 C702.40122,652.277236 704.433645,648.978756 706.767703,645.917421 C711.328093,639.708517 715.888484,633.499612 719.306981,628.835748 C722.201213,623.841317 724.133094,620.506905 724.133094,620.506905 L726.100885,615.174721 C726.969872,615.684944 726.969872,615.684944 728.399034,613.277556 C728.399034,613.277556 735.731567,601.348411 735.2863,601.111266 C735.2863,601.111266 738.202077,594.751451 741.117854,588.391635 C744.062358,582.046193 747.179223,575.772612 746.9135,575.664819 C746.856046,569.63557 748.637112,570.36138 754.27476,554.501366 L754.260396,551.57657 C756.630363,543.563922 759.854953,532.820505 762.066922,524.685691 C761.76529,521.768081 761.865834,521.789639 762.189011,519.008568 L763.330904,510.694097 C763.833625,506.526083 764.961154,498.908677 765.550055,491.25534 C765.5716,483.544514 765.700871,475.876804 765.923504,471.694418 C766.907399,464.723773 765.700871,452.198171 765.650599,439.607893 C765.729598,436.445951 765.392057,433.31994 764.9037,430.301722 C764.508706,427.269133 764.128075,424.329964 763.761807,421.556078 C763.057999,416.001121 762.440371,411.143229 762.002287,407.679465 C761.075845,403.590499 758.303703,391.309229 755.222746,377.669761 C750.504358,364.533329 746.561596,349.535663 741.706755,340.948116 C740.500227,338.411377 734.934396,328.695591 733.814049,326.144479 C732.018619,322.371707 728.205128,315.724443 724.65736,308.473535 C722.81884,304.887605 721.030593,301.143579 719.206437,297.787608 C717.059103,294.632853 715.062586,291.743987 713.389246,289.480324 C711.687179,287.231034 702.631034,276.494804 701.029512,274.195209 L695.320047,267.986305 C694.178154,265.255537 688.475871,258.989143 682.874132,252.636514 C680.195351,249.338034 674.722883,244.853825 669.501775,239.571945 C664.086761,234.520024 658.865653,228.598569 654.032357,225.623469 L640.394277,215.613048 C635.065443,210.884507 624.458048,205.279247 614.396463,198.739776 C609.462623,195.268826 603.947065,192.875811 599.099406,190.540285 C594.244565,188.20476 589.949899,186.135125 586.768398,184.604458 L583.450445,185.251219 C583.450445,185.251219 582.200826,184.604458 580.900936,184.079863 C579.572318,183.634317 578.236519,183.181584 578.236519,183.181584 L573.266771,180.422071 C570.595172,179.50942 562.300289,177.669744 559.671781,176.713975 C557.344905,175.930676 555.111391,174.967721 552.834787,174.349705 C550.529456,173.810738 548.267215,173.286143 546.062428,172.77592 C541.660035,171.741103 537.465913,170.756589 533.530332,169.829565 C525.738169,167.630578 518.649815,167.271267 513.026531,166.947886 C508.853953,166.430478 503.640027,165.776531 497.664839,165.029162 C491.653742,164.655478 484.845474,164.712968 477.599122,164.389588 C473.972355,164.324912 470.223499,163.958414 466.395644,164.08058 C466.101194,164.102139 465.79238,164.123697 465.497929,164.145256 L465.497929,162.937969 C464.91621,162.930783 464.305764,162.923597 463.61632,162.937969 C460.31273,163.117625 455.903156,163.35477 451.493582,163.591916 C442.681615,164.059021 433.840922,164.202746 433.87683,164.554871 C427.032654,165.675923 417.315792,166.610133 406.133859,167.788676 C400.632664,168.873796 394.779565,170.03078 388.746922,171.223694 C385.709056,171.777034 382.6281,172.33756 379.518416,172.905273 C376.43746,173.55922 373.464229,174.665899 370.404818,175.513875 C364.285995,177.281688 358.174354,179.056687 352.227893,180.774196 C346.331703,182.671362 340.923871,185.323081 335.638127,187.363971 C330.438564,189.591703 325.375454,191.345143 321.131059,193.522572 C316.987209,195.901214 313.317352,198.013966 310.272304,199.760221 C295.219425,207.032687 283.168505,216.777218 271.002676,224.696445 C265.508663,229.460917 260.201374,234.060105 255.044902,238.529941 C252.459484,240.772045 249.917156,242.978219 247.403555,245.155647 C245.047952,247.491172 242.958073,250.027912 240.767649,252.413741 C240.767649,252.413741 239.036855,254.339651 236.006171,257.709994 C233.111939,261.180944 228.285825,265.607663 223.646436,271.802194 C219.057319,278.039843 213.699759,285.31231 207.961567,293.109372 C203.013364,301.409469 197.734802,310.270093 192.45624,319.123531 C188.075393,328.458446 183.694546,337.786175 179.586604,346.539005 C176.369195,355.658333 173.360056,364.174018 170.781819,371.468043 C169.309567,375.061159 168.541124,378.532109 167.851679,381.607816 C167.119144,384.669151 166.479971,387.335243 165.948524,389.53423 C164.871266,393.925017 164.253639,396.425826 164.253639,396.425826 C163.499559,399.810541 162.379211,403.065904 161.926763,406.400316 C161.467133,409.734727 161.007503,413.004463 160.562236,416.231081 C159.621431,422.662758 158.716535,428.878849 157.840366,434.879352 C157.553097,440.937346 157.280192,446.772566 157.014468,452.392199 C156.81338,458.004646 156.052118,463.408692 156.597929,468.589965 C156.820562,473.771239 157.036013,478.729738 157.237102,483.472651 C157.531552,488.208378 157.222738,492.778822 158.084544,497.025885 C159.305436,505.555942 160.303695,513.238023 161.12241,520.079316 C163.722192,533.567873 166.329155,543.52799 167.506956,550.304607 C169.216205,556.930313 170.36528,560.142558 170.027739,560.250352 C170.027739,560.250352 169.15157,557.807033 168.282582,555.356528 C167.851679,554.134869 167.420776,552.906023 167.090417,551.986185 C166.867784,551.037603 166.724149,550.405214 166.724149,550.405214 C165.689982,550.707036 165.0939,548.16311 164.490635,545.62637 C163.456468,545.921006 160.145697,541.357748 159.097166,541.609267 C156.181389,534.16433 153.409246,532.03002 151.714361,529.651377 L151.312185,532.482752 L151.95854,535.098541 C151.312185,532.482752 150.32829,529.090851 149.164852,525.461804 C148.367681,521.760894 147.520239,517.801281 146.586616,514.186606 C144.748096,506.957257 142.765942,501.028616 141.695866,501.150782 L139.555715,501.395113 L139.146357,498.678718 C138.736999,495.962322 138.736999,495.962322 139.807075,495.854529 C139.720894,495.861715 140.683244,493.023153 140.683244,493.023153 L139.498261,490.385806 C138.464094,490.464855 137.379655,493.317789 137.666923,496.062929 L140.855606,517.880329 C141.75332,526.101378 142.184223,531.649149 141.171601,531.864736 L140.49652,529.169899 L139.440807,529.385486 C138.40664,529.593887 138.327641,529.608259 137.760286,526.877491 L138.054736,521.164437 L136.489122,510.147944 C135.656043,503.249161 133.925249,497.140864 133.523073,492.275785 C132.912627,487.432265 132.216,483.975688 131.612736,482.603117 C132.560723,479.742997 132.431452,476.969112 132.144183,471.38541 C131.46192,464.414765 131.828188,457.44412 131.734825,450.789669 C131.655826,444.135219 131.397285,437.796962 131.095653,432.127025 C131.095653,432.127025 131.347013,430.035832 131.655826,427.951825 C131.96464,425.867817 132.273454,423.78381 132.273454,423.78381 C132.891082,419.60861 134.269971,411.99839 135.505227,405.099608 C136.417305,398.136149 138.894997,392.214694 139.024268,390.813379 C142.21295,378.639902 143.484114,369.549319 144.740914,364.79922 C145.739173,359.977258 144.956366,358.949627 141.997499,362.470881 L150.400107,338.389818 L149.394667,337.994575 C149.279759,334.882937 149.40903,334.926054 150.594014,332.346197 L155.420127,322.019582 C156.626656,319.432539 157.818821,316.852681 158.048636,313.78416 C158.048636,313.78416 153.21534,324.153893 148.389226,334.523625 C144.604462,345.317345 140.819697,356.118252 140.819697,356.118252 C138.86627,359.237076 137.027751,362.420577 135.282593,365.654381 C133.88934,368.988793 132.639722,372.387881 131.46192,375.815713 C129.106317,382.671378 127.116981,389.656396 125.364643,396.691716 C125.364643,396.691716 125.106101,397.56125 124.955285,398.919448 C124.76856,400.263274 124.5172,402.059832 124.26584,403.85639 C123.755938,407.442319 123.246036,411.035435 123.246036,411.035435 C123.368125,413.988976 123.447124,419.119946 123.145492,426.687048 C122.772043,434.25415 123.770301,444.422668 123.461488,457.286023 C122.836678,459.441892 122.269323,461.403734 121.730694,463.272154 C121.328518,465.154947 121.156157,466.958691 120.96225,468.762435 C120.610346,472.369923 120.516984,475.991784 120.725254,480.325082 C120.100444,489.049167 121.299791,494.812525 124.81165,497.334893 C127.15289,505.714039 126.894348,511.484583 124.761378,511.800777 C123.526123,503.256348 121.594241,497.658273 120.516984,497.751694 C119.870629,500.719608 119.669541,506.612318 121.321336,518.174965 L122.54941,526.84156 C123.957026,535.479411 125.860181,541.027182 125.343097,544.146006 L120.100444,545.382038 L121.508061,551.159769 C122.211869,554.041448 122.204687,554.034261 121.867147,557.217762 C120.825798,557.505211 119.087822,554.867864 118.376832,551.95744 C117.665842,549.047016 116.954852,546.12222 117.292393,542.981837 C116.768128,543.104003 115.712415,541.041554 114.505887,537.843681 C113.902623,536.248338 113.270632,534.365545 112.645822,532.331841 C112.222101,530.262207 111.848652,528.041661 111.532656,525.806743 L109.615138,520.021826 C108.975965,523.183768 109.406868,526.180427 109.830589,529.177086 C109.830589,529.177086 109.938315,529.924454 110.096313,531.052692 C110.204039,532.188117 110.534398,533.661294 110.92221,535.120099 C111.647564,538.059268 112.365735,540.991251 112.365735,540.991251 C113.091089,543.930419 113.083907,543.930419 112.753548,547.11392 C112.035376,544.174751 109.543321,538.512001 107.755073,535.752488 C107.755073,535.752488 106.986629,532.79176 107.079992,532.777388 C102.80687,518.045613 101.463889,508.84005 103.611223,508.61009 L103.173138,505.584687 C101.643432,496.530035 103.144411,493.346534 104.070852,493.281858 L104.207305,496.307261 C105.10502,505.3691 107.790982,514.208165 109.184235,517.032354 L109.392505,510.924057 L108.961602,507.948957 C107.194899,499.095519 104.93984,487.166375 104.724389,484.119412 L104.580754,481.094009 L105.514378,478.032674 C104.43712,478.082978 103.216228,475.086319 103.065412,472.053729 L103.991854,469.006767 L102.76378,465.988549 C101.492616,462.963146 101.650614,462.95596 101.765521,459.916184 L100.989896,453.807887 L100.063455,450.717807 C100.508721,441.548175 100.551811,434.649393 100.228634,429.999901 C100.077818,425.371967 99.8120944,423.014883 98.6773832,422.885531 C98.6773832,422.885531 98.074119,425.149194 97.4708548,427.420044 C96.9178626,429.690893 96.6305939,432.004859 96.6305939,432.004859 L95.8980588,447.476816 C95.5964267,456.761428 94.7705293,462.963146 96.451051,469.121747 C97.5211268,469.107374 97.5211268,469.107374 97.3703107,466.024481 C97.3703107,466.024481 97.4852182,464.486627 97.8371223,462.948773 C98.1818447,461.418106 98.5265671,459.880252 98.5265671,459.880252 L99.6038247,459.894625 L99.4530086,462.95596 C98.3757511,466.010108 98.5983843,469.085815 98.5983843,469.085815 C98.7492004,472.154336 98.7492004,472.154336 99.8264579,472.132778 L100.903715,472.111219 C99.9772739,475.158181 93.6645449,478.492593 92.5872874,478.550083 C92.4364713,475.424072 91.0647634,469.22954 87.6749931,466.089157 C86.7485517,469.258285 86.8993677,472.434599 87.0501838,475.596541 L87.5026319,485.09674 L88.7307055,488.194006 L90.1024134,494.417282 L90.2532295,497.564852 C90.2532295,497.564852 89.3339697,500.820215 89.4201503,500.813029 C88.3500745,500.920822 88.3500745,500.920822 88.8025227,504.061205 L91.9696598,526.02233 C92.953555,535.50097 95.5605181,544.663415 95.2301592,547.997827 L94.9357088,551.332238 L96.451051,557.533956 L95.6036084,567.688102 C96.3648704,570.814112 96.3648704,570.814112 95.3307032,571.115934 C97.0112249,573.983241 98.3685694,576.915223 101.456708,586.048924 L107.82689,604.258835 L106.82145,604.654078 C104.846478,605.423005 104.623845,609.001748 108.896966,617.79051 L111.6332,623.690406 L107.704801,625.465405 C110.204039,627.937469 112.530915,634.09607 120.028627,648.655375 L123.353762,654.303753 C122.412957,654.828348 125.752455,660.491099 124.818832,661.030066 L123.145492,658.198691 C121.472152,655.360129 119.79163,652.514382 118.850826,653.03179 L117.902839,653.549199 L121.271064,659.262253 L121.407517,659.384419 C120.976614,659.909014 120.897615,660.749803 122.017963,662.654155 C125.400551,668.381581 127.088255,671.234515 127.871062,674.67672 L133.077806,679.232791 C132.201637,679.80769 132.115456,679.857994 133.027534,683.235522 C132.912627,683.314571 128.661051,678.126112 128.661051,678.126112 C126.054087,675.833704 124.344839,672.937652 123.425579,673.505365 L122.506319,674.073077 L125.93918,679.872366 C127.217526,683.084612 138.342005,695.847359 140.259523,698.578127 L142.248859,701.287337 C140.259523,698.578127 140.259523,698.578127 139.383354,699.210516 L137.638197,700.475293 C136.776391,701.114867 142.521764,705.297254 141.652776,705.936829 L140.79097,706.58359 L150.522196,716.162836 C150.522196,716.162836 151.470183,717.564152 152.583349,718.836115 C153.710879,720.086519 154.838408,721.34411 154.838408,721.34411 L156.274751,724.549169 C155.456036,725.239047 155.456036,725.246233 152.353534,723.406558 L149.243851,721.559697 L150.694558,724.786315 L166.724149,742.557866 C165.941342,743.290861 160.555055,738.96475 150.515015,729.421434 C150.515015,729.421434 149.495211,728.587831 147.965505,727.344613 C146.450163,726.087023 144.324375,724.484493 142.543309,722.587328 C138.815998,718.900791 135.088687,715.214254 135.088687,715.214254 C136.323942,718.649273 138.32046,721.523765 142.572036,727.028419 L151.879541,737.390965 C155.728941,743.269303 159.628613,749.197944 166.695422,756.973447 C165.926979,757.735187 162.788569,755.888326 160.425784,753.279724 L157.280192,751.404117 L156.490203,752.144299 C155.685851,752.877295 164.461909,764.130934 163.71501,764.89986 L160.669962,767.946823 C157.474098,766.049658 155.046678,763.383566 151.843632,761.450469 C143.785746,754.170816 142.909577,754.810391 147.161153,765.905933 L150.565287,772.840647 L136.683028,765.582552 C131.110016,765.675973 121.579878,758.906543 111.906105,747.250475 C110.232765,748.608673 107.101537,746.222844 102.55551,740.078616 C100.989896,738.871329 94.8854368,731.512628 88.0125338,723.435303 C80.7877268,715.609497 74.5468149,705.872153 70.0438785,701.811932 L62.1942621,688.474285 C55.9389869,683.127729 46.631482,665.967007 33.9054799,637.495157 C33.9054799,637.495157 31.9448712,631.990504 29.0147308,623.733523 C26.1923161,615.440612 22.0556473,604.488795 18.7305124,593.307018 C15.9440063,581.967144 13.1646819,570.62727 11.0748024,562.125958 C10.0765437,557.864523 9.17164742,554.328897 8.68329068,551.820902 C8.3026597,549.298535 8.08002648,547.854102 8.08002648,547.854102 C8.08002648,547.854102 6.19841669,534.861395 3.38318373,515.372334 C3.06000647,512.936202 2.72246579,510.392276 2.37774338,507.762115 C2.23410905,505.110395 2.083293,502.379627 1.93247695,499.562624 C1.65238999,493.928619 1.35793961,487.992791 1.0563075,481.848563 C0.804947417,475.704335 0.438679863,469.351706 0.316590679,462.905656 C0.596677632,456.45242 0.876764585,449.898577 1.16403325,443.344733 C1.49439222,436.79089 1.83193291,430.237046 2.15511017,423.790996 C2.2987445,417.323388 3.67763411,411.071366 4.38144236,404.963069 C6.21996184,392.796779 7.52703429,381.363484 9.55946013,371.733933 C14.2132126,352.589812 17.3157142,339.819878 17.3157142,339.819878 C18.3714266,334.05652 22.2998256,322.033954 26.2569516,309.982644 C30.1638055,297.916961 34.0922045,285.836905 36.8787106,280.641259 C38.4945969,277.084075 44.3836046,266.901184 46.0425812,263.372744 C46.0425812,263.372744 47.7518298,259.736511 50.7322422,253.36951 C53.4038408,246.837225 58.9624896,238.429334 64.9448597,227.96618 C68.0258161,222.784907 71.3724961,217.179647 74.9059008,211.243819 C78.4105785,205.293619 83.0571493,199.659613 87.3805428,193.501013 C91.8475706,187.443019 96.4725962,181.190998 101.162257,174.831183 C103.43168,171.590192 105.995553,168.550416 108.710241,165.62562 L116.710674,156.685947 C122.096961,150.757306 127.476067,144.828665 132.776174,138.986259 C137.94701,133.021686 144.108923,128.22847 149.531119,123.047196 C160.770506,113.094265 170.738729,103.198824 180.74286,96.4150215 C190.452541,89.2934658 198.539155,83.3504521 204.198347,79.1968101 C209.785723,74.9353747 213.376581,73.0813269 213.376581,73.0813269 C233.463843,61.1593683 250.06079,50.8471257 261.393539,47.4408519 C261.393539,47.4408519 267.340001,44.6741526 276.259693,40.5276969 C280.741084,38.5083658 285.904739,35.9788122 291.578295,33.6361006 C297.366759,31.5808383 303.543035,29.3890376 309.719311,27.1972369 C322.100591,22.8711254 334.417235,18.3581718 344.062281,16.3891443 C353.606782,14.0464328 359.962602,12.4870205 359.962602,12.4870205 C373.026145,8.59208285 397.142349,5.6169829 421.639185,2.69937279 C433.970193,2.2250815 446.42329,1.74360397 457.72013,1.30524383 C460.370184,1.1399605 462.941238,1.13277426 465.447657,1.17589166 L465.447657,0.715972821 C472.435468,0.715972821 479.171918,0.759090212 485.91555,0.910001079 C485.951459,-0.0960713701 485.951459,-0.0960713701 490.282034,0.10514312 C490.282034,0.10514312 497.844382,0.493199636 505.406729,0.87406992 C509.184312,1.05372571 512.969077,1.24775397 515.769946,1.74360397 C518.585179,2.13166048 520.459608,2.39036483 520.459608,2.39036483 C531.074185,4.58216552 541.401494,6.70929013 551.441534,8.77892488 C561.452847,10.8844908 570.968621,14.053619 580.355125,16.3891443 C599.250222,20.7440008 616.342708,27.261913 633.011472,31.9473361 C633.011472,31.9473361 636.05652,33.0324571 639.10875,34.1247644 C642.196888,35.1092781 645.083938,36.6040143 645.083938,36.6040143 C652.545742,41.1169679 655.662607,42.0008744 660.883715,43.5890316 C663.490678,44.3795171 666.621907,45.3496584 671.060208,47.0527953 C673.279358,47.9007707 675.828868,48.9355881 678.802098,50.2219236 C680.281532,50.8830569 681.875873,51.5873076 683.585122,52.3490482 C685.215371,53.2760721 686.96771,54.2749583 688.84932,55.3457068 C693.531799,58.0764749 700.024071,62.0217161 707.493057,66.6783943 C714.940497,71.3710037 723.587284,76.4444833 731.544626,82.9911405 C739.667148,89.2647208 747.997939,95.7107707 755.797283,101.732833 C763.582264,107.754895 769.916539,114.409346 775.626003,119.317542 C774.958104,120.072096 780.681932,126.56845 789.429263,135.953669 L791.871047,139.561157 L795.461905,147.94749 C795.461905,147.94749 806.112391,159.747282 816.770059,171.554261 C822.307162,177.267315 826.558739,184.094235 830.257323,188.772472 C833.797909,193.587248 836.160694,196.792307 836.160694,196.792307 C838.69584,200.205767 842.178972,204.89119 846.14328,210.223374 C850.143496,215.526813 853.719991,222.087843 857.734571,228.361423 C865.55546,241.052309 873.476894,253.728821 876.67994,261.669607 L882.949578,277.543993 C888.285594,289.135385 890.023569,293.015951 889.197672,288.761701 C889.197672,288.761701 890.124113,290.687611 890.921284,292.656639 C891.639456,294.661598 892.357627,296.666556 892.357627,296.666556 L893.291251,296.300058 C894.749139,300.30279 902.771117,320.136789 904.135643,324.204196 C908.279493,335.242248 909.629656,342.909958 911.389177,348.529591 C913.062517,354.170783 914.20441,358.029789 915.41812,362.154686 C916.624648,366.272397 918.075355,370.627254 919.655333,377.418243 C920.883406,384.273908 922.40593,393.544147 924.352175,407.363271 C926.327148,420.10446 926.363056,424.401826 925.336071,424.488061 L924.33063,424.574296 C920.545866,433.298381 929.55892,462.963146 923.440097,501.323251 L922.212024,505.491266 C921.005495,509.637721 920.739772,509.608976 920.244233,513.827294 C919.080795,522.235186 917.737814,537.046009 916.301471,551.4041 C913.751962,565.546605 911.159362,579.236376 909.600929,585.466839 C908.049678,595.017341 905.46426,602.91501 903.668831,609.813792 C901.844675,616.705389 900.322151,622.447188 899.072533,627.15417 C897.923458,631.889896 897.018562,635.58362 896.34348,638.379064 C895.510401,641.095459 895.014863,642.942321 894.799411,644.020256 C891.208553,651.896366 889.377215,655.820048 890.296475,656.244036 C888.931948,659.197577 886.76307,663.573992 884.148925,668.704962 C881.470145,673.8 878.712366,679.843621 874.877329,685.448882 C867.638158,696.903735 860.03272,708.703528 855.580056,716.09816 C853.497358,719.964353 835.507158,738.864143 833.058192,742.306348 C833.058192,742.306348 831.305853,744.670618 828.670163,748.227803 C827.348727,750.002802 825.81184,752.06525 824.160045,754.27861 C822.328707,756.341058 820.37528,758.540045 818.429035,760.731846 C810.557874,769.470304 802.67953,778.208762 802.67953,778.208762 C791.569415,791.266145 780.58857,799.911182 772.911314,807.348932 C764.997063,814.54235 759.740046,819.910465 756.608817,822.864006 C757.240809,823.647305 757.240809,823.647305 753.800766,826.219976 L746.891955,831.350946 C743.430367,833.91643 743.423186,833.909244 744.02645,834.714102 L741.577484,836.999324 C743.365732,838.925234 745.232978,840.987683 747.272586,843.308835 C751.100441,847.131911 755.797283,854.203163 762.835366,864.810041 L774.570291,882.488171 L775.740911,884.255984 L777.500431,886.907704 L779.259952,889.559423 C781.019473,892.211143 786.61403,898.685937 788.373551,901.337657 L801.279096,920.7836 L807.146558,929.622665 L809.214893,930.794021 L810.392694,932.561834 L810.08388,934.042198 C810.981595,933.445741 811.570496,934.329647 812.741116,936.09746 C820.368099,947.588245 823.578326,954.372048 823.269512,955.852411 C822.960698,957.332775 827.65036,964.404027 835.866243,976.771532 C842.322607,986.494504 850.222495,1000.34956 859.300185,1015.97243 C879.5239,1048.38952 890.052296,1068.14447 893.262524,1074.92109 L896.192664,1079.34062 L895.29495,1079.93708 L896.472751,1081.70489 C905.277536,1094.96349 913.177424,1108.81854 920.18678,1123.27005 C922.219206,1128.28604 932.230519,1139.46782 934.270126,1144.48381 L938.378068,1150.67115 L938.966969,1151.55506 C941.31539,1155.09069 948.317564,1169.5422 953.912122,1176.01699 C954.493841,1176.89371 960.677299,1184.2596 963.02572,1187.79523 L965.963042,1192.21476 L975.349546,1206.35008 C977.109067,1209.0018 982.114723,1214.59269 982.703624,1215.47659 C992.679029,1230.503 997.95759,1238.45816 998.819396,1241.70634 C999.408297,1242.59025 999.372389,1246.44207 997.813956,1253.8367 C996.923423,1258.30653 996.614609,1259.7869 995.716895,1260.38336 L995.716895,1260.38336 Z M901.011596,570.174538 L897.018562,586.350746 L896.975471,590.669671 C890.36111,610.467739 887.438151,618.293546 887.021612,622.605285 C887.962417,622.964597 888.910403,623.309536 888.43641,627.635647 L887.955235,631.983317 C890.368292,624.9983 893.298432,616.518547 896.393752,607.535757 C897.887549,603.02999 899.424437,598.402056 900.961324,593.766937 C902.246851,589.067141 903.259473,584.288297 904.372639,579.674736 C906.484064,570.433242 908.4734,561.694784 910.118013,554.508553 C911.82008,547.336693 912.11453,541.508659 912.732158,538.411393 C913.356967,534.264938 916.746737,517.715046 917.306911,513.525473 C918.434441,507.280637 917.716269,499.806956 917.371547,493.475886 C916.933462,487.130443 916.42356,481.870122 916.524104,479.778928 C916.524104,479.778928 916.63183,477.421844 916.789828,473.893404 C916.832918,470.364965 917.400274,465.657983 917.077096,460.951001 C916.653375,451.537037 916.236836,442.123074 916.236836,442.123074 L915.827478,433.7583 C914.606586,429.640589 914.613768,429.647775 914.391134,425.472575 C914.391134,425.472575 914.391134,423.115491 913.95305,419.615796 C913.464693,416.123287 912.811157,411.466609 912.164802,406.809931 C910.814639,397.503761 909.464477,388.190404 909.464477,388.190404 L907.855772,384.230791 L906.864695,384.410446 C907.482323,388.528157 908.085587,392.653054 907.09451,392.811151 C911.267088,413.112256 915.324758,442.259612 913.32824,483.839149 C913.32824,483.839149 913.062517,489.293499 912.653159,497.478617 C912.595705,505.69248 910.807458,516.4862 909.284934,527.301479 C907.575685,538.088013 906.534336,548.996713 904.236187,556.894382 C902.297123,564.863913 901.011596,570.174538 901.011596,570.174538 L901.011596,570.174538 Z M861.390065,255.396027 C865.182011,262.79066 866.769171,266.656852 865.921728,267.066468 C865.921728,267.066468 870.719115,277.421828 875.523683,287.770001 C877.951104,292.936902 880.313888,298.125361 881.577871,302.221513 C883.007032,306.252989 883.955019,308.94064 883.955019,308.94064 C885.333908,312.857136 886.705616,316.75926 889.025311,320.366749 C896.357844,339.855809 898.325634,352.244873 899.532162,351.935865 C894.83532,331.649133 892.443808,327.984154 897.901913,330.671805 C894.749139,318.412094 890.490381,315.422621 889.111491,311.491752 C889.018129,308.186086 887.948053,302.702991 886.253168,296.371921 C884.393103,290.112713 881.254693,283.27142 878.231191,276.839743 C871.968734,264.041064 865.160466,253.355137 861.390065,255.396027 L861.390065,255.396027 Z M114.915245,659.061039 L113.97444,659.585634 C115.683688,662.488871 118.333742,664.867514 124.373566,672.959211 L120.186625,663.760834 C118.49174,660.886342 116.796855,658.011849 114.153983,655.640392 L114.915245,659.061039 L114.915245,659.061039 Z M107.82689,480.986215 L109.830589,477.910508 L108.609697,474.964153 L106.893267,484.04755 L107.82689,480.986215 L107.82689,480.986215 Z M110.254311,486.842994 L110.117858,483.860708 L107.970525,483.982874 L108.114159,486.979533 C108.250612,489.976191 110.390763,489.810908 110.254311,486.842994 L110.254311,486.842994 Z M116.337225,370.318246 L113.141361,378.884234 L112.753548,385.01409 C111.697836,384.78413 112.028195,387.960445 113.083907,388.183218 C112.028195,387.960445 112.753548,385.021276 114.189891,379.142938 L116.337225,370.318246 L116.337225,370.318246 Z M657.048678,52.0831576 C657.048678,52.0831576 654.16881,50.7537047 649.845416,48.7559323 C645.457387,46.9234432 639.891557,43.7615012 633.823006,41.8715222 C621.851085,37.6603904 609.879163,33.4492586 609.879163,33.4492586 C619.402119,38.3502687 628.041724,42.2092751 635.97034,45.0406504 C643.726594,48.2744547 650.635405,50.8327533 657.048678,52.0831576 L657.048678,52.0831576 Z M805.221858,167.688068 L810.809234,173.918531 L814.371365,176.397781 L817.933497,178.891404 C809.559615,169.470254 805.968757,167.026935 805.221858,167.688068 L805.221858,167.688068 Z M761.154844,808.36219 C775.468006,795.96594 788.675183,785.315945 798.506953,773.544897 C803.649062,767.882147 808.453631,762.449355 812.97093,757.210592 C815.204444,754.566059 817.473867,752.072437 819.477566,749.442276 C821.359176,746.718694 823.204877,744.059788 825.007488,741.451186 C824.210317,740.83317 824.217499,740.83317 825.919566,736.837625 L827.607269,732.856453 L829.474516,728.408175 C828.023809,730.59279 825.553298,733.955946 821.833169,738.986309 C821.833169,738.986309 821.093452,739.985195 819.800743,741.731449 C818.45058,743.4274 816.77724,746.071933 814.299548,748.845819 C809.3298,754.379217 802.701076,761.752291 796.072351,769.125365 C792.732853,772.790343 789.393354,776.455321 786.262126,779.89034 C783.102171,783.296614 779.7124,786.034568 777.026438,788.592867 C771.518061,793.594484 767.848204,796.921709 767.848204,796.921709 C764.752884,799.72434 766.081502,801.233448 769.198367,798.416445 C769.88063,799.163814 760.50849,807.60045 761.154844,808.36219 L761.154844,808.36219 Z M328.298413,772.093278 L335.968486,775.693581 C336.377844,774.687508 331.293189,772.294493 328.298413,772.093278 L328.298413,772.093278 Z M317.863378,774.371314 L332.277084,784.661998 C336.78002,788.959364 339.307984,790.640943 342.044218,791.697319 C342.424849,790.68406 342.798299,789.677988 340.04052,788.722219 L342.798299,789.677988 L343.552379,787.658656 C342.381759,786.652584 339.128441,785.050054 334.553688,782.908557 C330.136932,780.379004 324.391559,777.389531 317.863378,774.371314 L317.863378,774.371314 Z M252.323031,779.380117 C264.998761,789.024041 275.814427,796.02343 283.994402,801.060979 C284.604848,799.975858 274.255994,791.984768 254.132824,776.699653 L253.52956,777.590746 L252.323031,779.380117 L252.323031,779.380117 Z M264.711493,802.174845 L263.61269,804.028892 L269.322155,807.406421 C269.853602,806.465025 267.548271,803.856423 264.711493,802.174845 L264.711493,802.174845 Z M328.793951,857.810651 L328.679044,855.525429 L325.9859,854.584033 L325.626814,855.597292 L328.248141,857.537574 L328.793951,857.810651 L328.793951,857.810651 Z M332.988074,853.894155 L332.93062,853.003062 C332.664896,852.765916 332.391991,852.478467 332.133449,852.176645 C330.180022,851.515512 328.499501,851.062779 327.652058,851.228063 L332.988074,853.894155 L332.988074,853.894155 Z M335.235951,853.247394 L335.06359,853.189904 C335.085135,853.211463 335.092317,853.218649 335.10668,853.240208 C335.164134,853.240208 335.185679,853.240208 335.235951,853.247394 L335.235951,853.247394 Z M343.099931,849.560857 C342.604392,849.23029 342.331487,848.993145 342.367396,848.885351 L335.968486,846.650433 L329.224854,845.428774 C324.434649,843.682519 317.339113,840.836772 311.270562,837.818554 C305.324101,834.484143 300.189173,831.509043 298.659468,830.797606 L292.526282,827.951858 C289.000059,827.499125 288.992877,827.499125 285.919102,826.069065 L288.052072,829.439408 L287.58526,830.409549 C286.041191,829.690926 283.513227,828.066838 280.575905,826.09781 C279.118016,825.10611 277.54522,824.035362 275.943698,822.943055 C274.421174,821.707023 272.869923,820.449432 271.361762,819.234959 C265.300393,814.420184 259.777653,810.525246 258.671669,812.372108 C256.308884,809.727574 256.316066,809.734761 253.400289,808.002879 L250.484512,806.270997 L247.568735,804.539115 L245.241858,801.901768 C245.241858,801.901768 244.128692,801.298124 242.548715,800.241748 C241.019009,799.120696 238.979401,797.62596 236.932612,796.131224 C232.853397,793.134565 228.774182,790.137906 228.774182,790.137906 L232.975486,795.894078 L232.357859,796.777985 L227.5102,791.884161 L226.878209,792.760881 C226.246218,793.637601 225.607045,794.507135 228.357642,796.526466 C228.357642,796.526466 231.804866,799.05602 235.259272,801.585574 C236.982884,802.85035 238.713678,804.107941 240.006387,805.056524 C241.385277,805.875754 242.304536,806.421908 242.304536,806.421908 L241.715636,807.327373 C241.715636,807.327373 240.207475,806.508142 238.80704,805.516442 C237.420969,804.503184 236.042079,803.497111 236.042079,803.497111 C237.952416,806.788405 249.522162,814.283645 248.882989,815.347208 C257.802681,820.636274 260.797457,822.389715 264.294953,823.201759 C272.431838,829.841837 284.827481,836.101045 287.915619,837.696388 L284.296034,837.200538 C280.669267,836.697502 277.523675,835.224325 277.523675,835.224325 C278.615296,836.920275 283.628134,840.089404 290.759579,843.991527 C297.919751,847.814603 306.983077,852.888082 316.987209,856.265611 C319.428992,857.185449 321.88514,858.105287 324.319742,859.017938 L324.247924,857.041724 C320.190254,855.130187 318.890364,853.649823 319.414629,852.26288 C322.696674,853.419864 322.703855,853.419864 326.337804,853.549216 L328.585681,854.339701 C328.492319,853.355187 328.190687,852.535957 327.178065,851.450836 C327.15652,851.486767 327.070339,851.472395 327.055976,851.515512 L326.337804,850.617233 C326.287532,850.574116 326.265987,850.545371 326.215715,850.495067 L326.258805,850.516626 L324.535193,848.346384 C321.669688,846.197701 322.050319,845.184442 318.825728,844.056203 C319.213541,843.050131 319.213541,843.050131 322.423768,844.178369 C325.260546,846.319867 328.492319,847.455291 331.702546,848.576343 L331.365006,849.546485 C331.429641,849.589602 331.46555,849.603974 331.544549,849.661464 L337.124743,851.608933 L337.117561,851.486767 C335.372404,850.308225 333.605701,849.237477 331.702546,848.569157 L336.262936,849.762072 L334.718867,847.85772 C336.923654,848.957214 336.923654,848.9644 339.049443,849.165614 L343.099931,849.560857 L343.099931,849.560857 Z M347.724956,843.919665 C347.258145,843.387884 346.812878,842.884848 346.338885,842.274018 C345.778711,842.07999 345.261628,841.921893 344.651182,841.691933 C336.808747,838.953979 329.971753,836.489101 324.14738,834.304487 C321.245967,833.190621 318.588732,832.16299 316.168493,831.22878 C313.820072,830.136473 311.773282,828.986675 309.934763,828.009348 C302.623775,824.028176 299.219642,821.556112 299.67209,820.578784 L293.68972,817.797713 C290.228132,817.373725 287.240538,815.979596 286.752181,816.942551 L280.748266,814.132734 C280.195274,815.088503 300.404625,826.859551 300.002449,827.851251 C302.817682,829.748416 306.516266,831.760561 311.033566,834.002665 C315.507775,836.359749 321.21724,837.911975 327.501242,840.254687 L333.828335,842.468046 C331.027465,840.348108 327.860328,839.234242 325.081004,837.12149 L319.170451,833.902058 L322.316043,835.008738 C334.848138,839.413898 346.841605,845.867134 347.480778,843.811872 C347.559777,843.854989 347.631594,843.883734 347.724956,843.919665 L347.724956,843.919665 Z M353.376967,834.218252 C353.376967,834.218252 351.725173,832.500743 350.08056,830.783233 C349.067937,829.726857 348.105587,828.699226 347.48796,828.030907 C341.419409,826.227162 331.0921,823.244876 324.291015,820.866234 C323.939111,821.778885 320.786337,821.017144 317.906469,819.536781 C317.461202,820.607529 320.010712,822.921496 326.165443,824.955199 C325.77763,825.961272 325.77763,825.961272 322.711037,824.883337 C325.389817,826.960158 325.396999,826.960158 328.477956,828.038093 L334.632687,830.193962 L341.117777,831.322201 L347.258145,833.470884 C348.924303,834.311673 350.33192,835.015924 351.624629,835.655499 C352.881429,835.712988 353.520602,835.260256 353.376967,834.218252 L353.376967,834.218252 Z M355.387848,818.063603 C355.861841,816.518563 351.875989,813.687188 343.854011,809.878485 C339.839431,807.974134 334.81223,805.82545 328.808315,803.468366 C322.912125,800.838206 316.312127,797.316952 308.649236,793.853188 L305.869911,792.566853 L305.4031,793.536994 C304.936288,794.507135 304.936288,794.507135 302.1426,793.213614 C299.844451,790.957137 297.057945,789.685174 294.27862,788.37728 C294.020079,788.865943 303.01877,794.794585 314.717786,801.873023 C317.66229,803.626463 320.750428,805.458953 323.874475,807.313 C327.055976,809.059255 330.474473,810.374335 333.734972,811.854699 C339.307984,814.269273 344.679909,816.461073 349.340843,818.185769 C349.190027,817.740223 348.802214,817.416842 347.32278,816.223928 L349.096664,816.015527 C350.224194,816.928179 351.315815,817.539008 352.393072,818.042044 C352.831157,817.610871 353.606782,817.438401 355.387848,818.063603 L355.387848,818.063603 Z M400.309486,867.648602 C400.388485,867.936052 403.00263,868.891821 406.995665,870.142225 C410.213074,870.717123 412.173682,871.263277 414.048111,872.15437 L413.782387,872.168742 C414.88119,872.484936 416.015901,872.801131 417.179339,873.124511 C419.513397,873.749713 421.955181,874.40366 424.425691,875.064794 C426.867475,875.618133 429.194351,875.725927 431.535591,876.027749 C436.182162,876.516412 440.577372,876.846979 444.003051,876.868538 C443.895325,876.602647 443.809145,876.336757 443.751691,876.092425 C440.189559,875.603761 435.679441,875.352243 431.068779,875.122283 C431.15496,874.044349 431.15496,874.044349 427.729281,873.871879 C427.829825,872.801131 434.681183,873.138884 434.760182,872.068135 L434.817635,871.292022 C433.524926,871.10518 432.153218,870.93271 430.630695,870.781799 C429.294895,870.717123 427.837007,870.645261 426.300119,870.566213 C422.055725,870.099107 417.832875,869.430788 417.832875,869.430788 C413.531027,868.819958 410.485979,868.374412 408.116013,867.950424 L408.353009,868.769655 C408.633096,869.739796 408.633096,869.73261 406.615034,869.452347 C404.331248,868.209129 402.327549,867.943238 400.309486,867.648602 L400.309486,867.648602 Z M418.716226,893.490292 C418.723408,893.447175 418.802407,893.425616 418.823952,893.389685 L415.391092,892.908207 C414.098383,893.36094 412.733856,893.375312 412.051593,893.641203 C414.127109,893.935838 416.274443,894.23766 418.601319,894.56104 C418.515138,895.387457 420.827651,896.070149 427.226561,896.501323 C422.702079,895.430574 420.19566,894.460433 419.800666,893.598085 C419.412853,893.554968 419.111221,893.540596 418.716226,893.490292 L418.716226,893.490292 Z M374.907754,869.524209 L375.087297,870.465605 L375.439201,872.341212 C382.67119,875.258822 388.840285,877.393133 394.140392,879.089083 C396.30927,879.412464 398.154971,879.678354 399.576951,879.879569 C397.975428,879.067525 395.548008,877.98959 392.323417,876.624206 L392.301872,876.624206 L392.309054,876.61702 C387.94257,874.784531 382.190015,872.456191 374.907754,869.524209 L374.907754,869.524209 Z M393.300131,888.129363 L393.738216,890.033714 L398.248334,891.226629 C398.011337,890.27086 395.540826,888.72582 393.300131,888.129363 L393.300131,888.129363 Z M465.505111,906.447068 C464.41349,906.396764 463.178235,906.360833 461.899889,906.332088 C458.675298,906.238667 455.184984,905.455368 455.034168,905.060125 L450.789773,905.045753 L446.911646,905.994335 C443.701419,905.922473 438.796306,905.58472 434.300552,904.801421 C429.697071,903.709114 425.67531,902.688669 424.576507,902.537758 L420.138206,901.919742 C418.206325,902.573689 418.199143,902.573689 415.979992,902.257495 L418.766498,904.499599 L419.046585,905.462554 C417.926238,905.304457 415.865085,904.664882 413.423301,903.852838 C412.202409,903.436037 410.888155,902.983304 409.552356,902.530571 C408.173466,901.926928 406.773031,901.316098 405.415687,900.719641 C399.986309,898.398488 395.296648,896.702538 395.727551,898.606889 C393.21395,897.047477 393.21395,897.047477 390.908619,896.436647 L388.603288,895.818631 L387.368033,895.488064 C384.351712,895.020959 381.723203,894.489178 381.895565,893.590899 L383.030276,893.439988 C382.664008,893.339381 382.218742,893.217215 381.644205,893.023187 C380.322769,892.520151 378.563248,891.844645 376.796546,891.176325 C373.270323,889.825314 369.7441,888.474302 369.7441,888.474302 L374.771302,892.13928 L374.936481,893.07349 L370.052914,890.32835 L370.20373,891.26256 C370.354546,892.19677 370.505362,893.123794 372.88251,894.036446 C372.88251,894.036446 375.862923,895.179056 378.843335,896.314481 C380.32995,896.882193 381.823748,897.449906 382.936914,897.873893 C384.028535,898.168529 384.753888,898.362557 384.753888,898.362557 L384.940613,899.303953 C384.940613,899.303953 383.784356,899.052435 382.599373,898.614075 C381.407208,898.161343 380.215043,897.70861 380.215043,897.70861 C382.850733,899.950714 392.330599,902.925814 392.574777,904.025308 C399.627223,905.900914 401.982826,906.51893 404.087069,906.181177 C411.469874,909.443726 420.69838,911.125305 423.010893,911.578037 L421.014376,912.224798 C419.010677,912.864373 416.726891,912.533806 416.726891,912.533806 C418.134507,913.662045 422.199359,914.883704 427.671827,916.105363 C433.115568,917.25516 440.117742,918.907994 446.689013,918.843318 C453.224375,919.08765 459.874645,919.331981 465.505111,919.540382 L465.505111,911.297774 C464.363218,911.075001 463.027419,911.09656 461.339715,910.895345 C459.364743,910.651013 457.116866,910.406682 454.782808,909.910832 L457.310772,910.888159 L453.001742,910.873787 C450.847227,910.8666 448.699894,910.852228 449.05898,911.829555 L446.193475,909.8749 C443.687056,908.8832 443.349515,907.913059 441.209363,907.898687 C440.871823,906.928545 440.871823,906.928545 443.004792,906.942918 C445.489666,907.934618 447.637,907.941804 449.762788,907.956176 L450.129055,908.926318 L454.222634,908.94069 C452.649838,908.394537 451.120132,907.956176 449.762788,907.94899 L457.9284,907.007594 C457.9284,907.007594 459.544286,907.07227 461.095537,906.95729 C462.603697,906.74889 464.111858,906.540489 464.111858,906.540489 L465.512293,906.669841 L465.512293,906.447068 L465.505111,906.447068 Z M465.505111,899.526727 C465.383022,899.526727 465.260933,899.526727 465.12448,899.533913 C459.716647,899.239277 453.806094,898.923083 447.435912,898.578144 L447.392821,899.656079 C443.758873,899.483609 443.809145,898.405674 440.168014,898.233205 L436.455067,899.131484 C425.51013,898.614075 421.969544,897.349298 418.371504,896.709724 C416.583257,896.307295 414.234835,895.861748 411.548873,895.380271 C416.339078,896.954056 423.456159,898.980573 423.678793,899.627334 C426.020032,900.417819 428.849629,901.043022 432.196309,901.61792 C435.578897,902.307798 439.133847,901.948487 443.378242,902.099398 L447.579546,902.120956 C445.123399,901.136443 443.026338,901.12207 440.584554,900.144743 L436.060072,899.13867 L438.149952,899.153043 C446.480743,899.210532 455.608705,901.17956 454.847443,899.239277 C459.127747,899.57703 462.610879,899.7495 465.512293,899.835735 L465.512293,899.526727 L465.505111,899.526727 Z M433.043751,890.393026 C435.4209,891.370354 435.4209,891.370354 437.460507,891.384726 L441.546904,891.406285 L442.681615,891.118835 L440.584554,890.702034 C437.589778,890.558309 436.957787,890.472075 434.817635,889.731893 C435.018723,890.364281 434.810454,890.400212 433.043751,890.393026 L433.043751,890.393026 Z M433.826558,889.379767 C433.769105,889.358209 433.74756,889.351022 433.682924,889.329464 C433.101205,889.300719 432.440487,889.257601 431.822859,889.22167 C432.418942,889.322277 433.115568,889.351022 433.826558,889.379767 L433.826558,889.379767 Z M454.710991,891.413471 L454.897715,891.363167 L454.258543,891.334422 C454.409359,891.363167 454.567356,891.391912 454.710991,891.413471 L454.710991,891.413471 Z M458.467029,892.117722 L458.47421,891.528451 C458.47421,891.708106 458.244395,891.866204 458.064852,892.031487 C458.201305,892.060232 458.337758,892.088977 458.467029,892.117722 L458.467029,892.117722 Z M465.505111,895.854562 L464.011314,896.27855 C462.050705,896.558813 462.050705,896.558813 459.68792,895.861748 C459.81001,896.156384 459.702284,896.558813 459.271381,896.954056 C459.580195,896.968428 459.889009,896.982801 460.205004,896.997173 C462.050705,897.133711 463.824589,897.148084 465.505111,897.126525 L465.505111,895.854562 L465.505111,895.854562 Z M465.505111,889.796569 C465.296841,889.106691 464.600215,888.589282 462.079432,888.452743 L458.524482,888.294646 L454.947987,889.214484 C454.962351,888.251529 449.339067,887.051428 438.149952,886.30406 C435.880529,886.426226 433.611107,886.512461 431.707952,886.498088 C431.786951,886.720862 431.715134,886.907704 431.542773,887.051428 C435.988255,887.461043 445.425031,888.790496 454.947987,889.214484 L458.510119,889.372581 C461.698801,889.516306 464.736667,889.703148 465.361477,890.428957 C465.411749,890.414585 465.454839,890.400212 465.505111,890.38584 L465.505111,889.796569 L465.505111,889.796569 Z M926.549781,1181.52165 C928.582207,1186.53764 931.519529,1190.95717 932.417243,1190.36071 L932.726057,1188.88035 C933.623772,1188.28389 931.311259,1180.90363 929.824644,1180.61618 C928.926929,1181.21264 928.029214,1181.8091 928.618115,1182.693 C928.029214,1181.80191 927.447495,1180.92519 926.549781,1181.52165 L926.549781,1181.52165 Z M889.032493,1121.107 L888.134778,1121.70345 L889.312579,1123.47127 C890.210294,1122.87481 890.210294,1122.87481 890.519108,1121.39445 C891.108009,1122.27835 890.799195,1123.75872 891.380914,1124.64262 L891.661001,1127.00689 L891.352187,1128.48726 C891.941088,1129.37116 893.420521,1129.65861 894.009422,1130.54252 C895.496038,1130.82997 895.496038,1130.82997 894.598323,1131.42643 L893.700608,1132.02288 L895.187224,1132.31033 C896.637931,1136.44242 897.499737,1139.69059 899.259257,1142.34231 L900.156972,1141.74586 C901.916492,1144.39757 904.537819,1150.29747 906.29734,1152.94919 L913.342604,1163.55607 C914.829219,1163.84352 916.308653,1164.13097 916.624648,1162.6506 C917.206367,1163.52732 917.795268,1164.41842 918.692983,1163.82196 C911.618992,1157.05971 904.365458,1136.3993 904.020735,1141.7243 C903.439016,1140.84039 903.74783,1139.36003 903.158929,1138.47612 L901.981128,1136.70831 L897.291467,1129.63705 C897.600281,1128.15669 897.327375,1125.79242 896.738475,1124.90851 C895.84076,1125.50497 894.943045,1126.10143 894.354145,1125.21752 L893.176343,1123.44971 C893.492339,1121.96935 891.725636,1119.31763 890.239021,1119.03018 L889.032493,1121.107 L889.032493,1121.107 Z M914.333681,1184.53987 C914.024867,1186.02023 914.304954,1188.3845 916.990916,1186.59513 L911.712354,1178.64716 L910.814639,1179.24361 L910.225739,1178.35971 L909.916925,1179.84007 C909.600929,1181.32043 909.600929,1181.32043 910.18983,1182.20434 L912.265346,1183.3757 L914.333681,1184.53987 L914.333681,1184.53987 Z M905.018994,1162.71528 L904.121279,1163.31174 L906.469701,1166.84736 L906.196796,1164.48309 L905.018994,1162.71528 C902.706481,1155.33502 899.769159,1150.91549 896.494296,1151.82095 C898.253817,1154.47267 899.424437,1156.2333 898.526722,1156.82976 C896.767201,1154.17804 891.732818,1152.43178 893.837061,1149.7585 C892.939346,1150.35496 892.07754,1147.10678 891.179826,1147.70324 L892.630533,1151.83532 C893.492339,1155.0835 894.081239,1155.96741 893.183525,1156.56386 L890.246203,1152.14433 L890.799195,1156.87287 C891.696909,1156.27642 892.28581,1157.16032 893.765244,1157.44777 L894.935864,1159.21558 C895.833578,1158.61913 895.833578,1158.61913 897.320194,1158.90658 C895.524764,1160.09949 894.62705,1160.69595 895.215951,1161.57985 L897.01138,1160.38694 C899.079714,1161.5583 899.359801,1163.92257 899.043806,1165.40293 C900.839235,1164.21002 901.736949,1163.61356 902.32585,1164.49746 L901.981128,1169.82246 C902.878842,1169.22601 905.536078,1171.28127 906.433792,1170.68481 L905.263172,1168.917 C903.503652,1166.26528 902.914751,1165.38137 903.223565,1163.90101 L905.018994,1162.71528 L905.018994,1162.71528 Z M898.146091,1166.00657 L896.659476,1165.71912 C896.070575,1164.83522 896.070575,1164.83522 895.17286,1165.43167 L899.560889,1173.98329 C901.356318,1172.79038 901.076231,1170.42611 898.146091,1166.00657 L898.146091,1166.00657 Z M866.22336,1145.18806 L867.709976,1145.47551 L866.812261,1146.07197 C867.39398,1146.94869 868.880595,1147.24332 870.367211,1147.53077 L868.60769,1144.87905 L868.018789,1143.99515 L866.259269,1141.34343 L864.46384,1142.53634 C864.147844,1144.0167 864.736745,1144.90061 866.22336,1145.18806 L866.22336,1145.18806 Z M900.602238,1224.25098 C900.013337,1223.36708 899.424437,1222.48317 898.526722,1223.07963 C899.115623,1223.96353 899.704524,1224.84744 900.602238,1224.25098 L900.602238,1224.25098 Z M899.524981,1244.06342 L901.873402,1247.59905 L902.455121,1248.47577 L904.803542,1252.0114 L905.385262,1252.88812 L906.871877,1253.17557 L906.282976,1252.29166 L905.701257,1251.41494 C901.600497,1245.23478 899.840976,1242.58306 899.524981,1244.06342 L899.524981,1244.06342 Z M910.60637,1235.42557 L910.017469,1234.54167 L909.119754,1235.13812 L909.708655,1236.02203 L910.60637,1235.42557 L910.60637,1235.42557 Z M919.583516,1229.46819 L918.405714,1227.70037 L916.610285,1228.89329 L917.199186,1229.77719 C918.685801,1230.06464 918.685801,1230.06464 919.583516,1229.46819 L919.583516,1229.46819 Z M926.657507,1236.22324 L926.032697,1239.18397 C926.930412,1238.58751 927.246407,1237.10715 926.657507,1236.22324 L926.657507,1236.22324 Z M927.763491,1212.56617 C928.072305,1211.08581 927.483404,1210.2019 925.723883,1207.55018 L923.928454,1208.74309 C923.066648,1205.49492 918.642711,1200.78794 918.958706,1199.30757 L919.540425,1200.18429 C920.129326,1201.0682 920.129326,1201.0682 921.027041,1200.47174 C920.43814,1199.58783 919.856421,1198.70393 920.754135,1198.10747 L922.513656,1200.75919 C923.102557,1201.6431 924.589172,1201.93055 925.479705,1201.33409 C926.37742,1200.73763 925.788519,1199.85373 923.131284,1197.79846 L920.782862,1194.26284 C920.193961,1193.37893 920.22987,1189.5343 918.750436,1189.24685 C914.570677,1190.74877 911.331723,1187.8096 909.292115,1182.79361 L906.326066,1182.21871 C906.907785,1183.09543 906.598972,1184.5758 904.803542,1185.7759 C903.044022,1183.12418 902.455121,1182.24027 903.352836,1181.64381 C901.86622,1181.35636 900.695601,1179.58855 900.415514,1177.22428 C899.517799,1177.82074 897.758278,1175.16902 894.820956,1170.74949 L895.718671,1170.15303 L886.913886,1156.89443 L886.324985,1156.01053 L885.736085,1155.12662 C882.798762,1150.70709 881.628143,1148.93927 880.730428,1149.54292 C880.141527,1148.65901 879.552626,1147.7751 878.662094,1148.37156 L879.250994,1149.25547 C879.839895,1150.13937 879.839895,1150.13937 880.73761,1149.54292 L881.010515,1151.9 L880.076892,1156.34109 C880.658611,1157.21781 880.349797,1158.69818 879.452082,1159.30182 C875.308232,1156.95911 878.037284,1151.3251 875.34414,1153.11447 L874.446426,1153.71093 C878.554368,1159.89828 880.313888,1162.55 878.827273,1162.26255 C877.929558,1162.859 877.031844,1163.45546 876.442943,1162.57155 C877.340658,1161.9751 877.649471,1160.49473 876.162856,1160.20728 L874.403336,1157.55556 C874.094522,1159.03593 873.196807,1159.63239 871.710192,1159.34494 L870.223576,1159.05749 L873.742618,1164.36093 L876.126948,1164.05192 L876.091039,1167.89655 C874.29561,1169.08947 872.808994,1168.80202 872.227275,1167.91811 L870.467755,1165.26639 L869.57004,1165.86285 C871.609648,1170.87884 872.780268,1172.64665 871.882553,1173.24311 L868.945231,1168.82358 C867.18571,1166.17186 866.596809,1165.28795 866.287996,1166.76831 L868.047516,1169.42003 C869.807037,1172.07175 871.566557,1174.71629 873.598983,1179.73946 L876.809211,1186.52327 L876.500397,1188.00363 L877.671017,1189.77144 C878.568731,1189.17498 878.568731,1189.17498 878.877545,1187.70181 L879.186359,1186.22144 L880.945879,1188.87316 L881.843594,1188.27671 C880.945879,1188.87316 883.021396,1190.04452 882.123681,1190.64098 L879.739351,1190.94998 L878.252736,1190.66253 L879.430537,1192.43035 C879.121723,1193.91071 879.121723,1193.91071 877.635108,1193.62326 L876.457306,1191.85545 C876.148493,1193.33581 876.737393,1194.21972 878.489732,1196.87144 C879.976348,1197.15889 878.216827,1194.50717 879.114542,1193.91071 C878.805728,1195.38389 880.285162,1195.67852 881.771777,1195.96597 L883.840111,1197.13733 C882.633583,1199.20696 882.324769,1200.68733 882.906488,1201.57842 C883.83293,1201.75808 884.400285,1202.13895 884.924551,1202.27549 L883.495389,1202.46233 C884.08429,1203.34623 885.527815,1207.47832 886.116716,1208.36222 C887.01443,1207.76577 887.596149,1208.64249 889.082765,1208.93712 C888.18505,1209.53358 889.362851,1211.30139 888.465137,1211.89785 C887.876236,1211.01394 887.876236,1211.01394 886.978522,1211.6104 L888.156323,1213.37821 L889.635757,1213.65848 L890.224657,1214.54238 C890.813558,1215.42629 891.402459,1216.3102 890.504744,1216.90665 L895.194405,1223.97791 C896.09212,1223.38145 893.743699,1219.84582 897.025743,1218.94036 C894.677322,1215.40473 893.815516,1212.15655 894.12433,1210.67619 C894.397235,1213.04046 895.575036,1214.81546 897.334557,1217.45999 C898.821172,1217.74744 900.307788,1218.03489 901.478408,1219.8027 C903.237928,1222.45442 904.717362,1222.74187 903.862738,1219.4937 C902.376122,1219.20625 902.684936,1217.72588 903.000932,1216.24552 C902.103217,1216.84198 901.514316,1215.95807 900.932597,1215.07416 L903.625741,1213.28479 C903.03684,1212.40089 903.934555,1211.80443 904.832269,1211.20797 C907.180691,1214.7436 911.324541,1217.08631 911.90626,1217.97022 L913.981776,1219.14157 L916.67492,1217.3522 L916.394833,1214.98793 C915.813114,1214.10402 915.813114,1214.10402 916.710829,1213.50757 C916.710829,1213.50757 922.334113,1216.13773 922.923014,1217.02163 C923.820728,1216.42518 923.820728,1216.42518 924.129542,1214.94481 L923.540641,1214.06091 L925.336071,1212.86799 C924.74717,1211.98408 924.74717,1211.98408 925.644884,1211.38763 C926.276876,1212.27872 926.865776,1213.16263 927.763491,1212.56617 L927.763491,1212.56617 Z M927.519313,1239.47142 C929.278833,1242.12314 929.867734,1243.00705 930.765449,1242.41059 C931.074262,1240.93023 930.212456,1237.68205 927.519313,1239.47142 L927.519313,1239.47142 Z M947.951297,1248.82071 C947.362396,1247.9368 947.678391,1246.45644 947.089491,1245.57253 C942.981549,1239.38519 939.735413,1236.44602 938.255979,1236.16575 L938.528884,1238.52284 C937.939984,1237.63893 937.358264,1236.75503 935.871649,1236.46758 L931.763707,1230.28023 L929.968278,1231.47315 L930.837266,1234.72132 L929.939551,1235.31778 L932.007886,1236.48913 L931.699072,1237.9695 L937.293629,1244.44429 L937.88253,1245.3282 C941.990472,1251.51555 944.647707,1253.57081 945.545422,1252.97435 L942.916913,1247.07445 C943.807446,1246.478 945.258153,1250.61008 947.951297,1248.82071 L947.951297,1248.82071 Z M920.165235,1197.23075 L917.507999,1195.17549 C918.678619,1196.9433 919.26752,1197.82721 920.165235,1197.23075 L920.165235,1197.23075 Z M904.738907,1193.47235 C905.047721,1191.99199 905.047721,1191.99199 904.45882,1191.10808 C903.561105,1191.70454 902.663391,1192.301 902.979386,1190.82782 C902.390486,1189.94391 901.52868,1186.68855 899.769159,1184.04402 C900.386787,1181.08329 900.702782,1179.60292 900.113881,1178.71902 C898.318452,1179.91193 893.62161,1172.84068 890.65556,1172.26578 C890.964374,1170.78542 888.307139,1168.73016 887.416606,1169.32661 L885.305182,1171.99989 L885.578087,1174.36416 C886.475801,1173.7677 886.475801,1173.7677 886.784615,1172.28734 L887.68233,1171.69088 C887.373516,1173.17125 887.373516,1173.17125 888.860131,1173.4587 L889.757846,1172.86224 C889.449032,1174.3426 890.310838,1177.59078 892.968073,1179.64604 L894.145875,1181.41385 C892.350446,1182.60677 892.939346,1183.49068 895.596582,1185.54594 C892.903438,1187.33531 894.081239,1189.10312 896.185482,1186.42984 L899.740432,1187.88865 C898.842718,1188.48511 899.431618,1189.36901 901.191139,1192.02792 L900.875143,1193.50828 L902.052945,1195.2761 C900.257516,1196.46901 899.359801,1197.06547 900.846417,1197.35292 L903.53956,1195.56354 C904.128461,1196.44745 903.812466,1197.92782 904.401366,1198.81172 C905.299081,1198.21526 906.785696,1198.50271 907.374597,1199.38662 C907.963498,1200.27053 907.963498,1200.27053 908.272312,1198.79016 L903.855556,1194.08318 L904.738907,1193.47235 L904.738907,1193.47235 Z M906.570245,1188.4348 C907.740865,1190.20262 908.329765,1191.08652 909.22748,1190.49007 C907.467959,1187.83835 906.879059,1186.95444 906.570245,1188.4348 L906.570245,1188.4348 Z M878.891908,1170.63451 C879.071451,1170.69918 879.143269,1170.79979 879.365902,1170.84291 C880.033801,1170.39736 879.710624,1170.61295 878.891908,1170.63451 L878.891908,1170.63451 Z M885.929991,1202.15332 L884.982004,1202.27549 C885.290818,1202.35453 885.59245,1202.37609 885.929991,1202.15332 L885.929991,1202.15332 Z M928.309301,1184.17337 C930.068822,1186.82509 930.657723,1187.70899 931.548256,1187.11254 C930.384818,1185.34472 929.795917,1184.46082 928.309301,1184.17337 L928.309301,1184.17337 Z M876.952845,1174.99655 C878.43946,1175.284 879.337175,1174.68754 880.23489,1174.09108 C879.645989,1173.20718 877.26884,1173.51619 876.952845,1174.99655 L876.952845,1174.99655 Z M893.319977,1207.42801 L892.458171,1204.17984 C892.178084,1201.81557 890.425746,1199.16385 888.070142,1195.62822 C888.378956,1194.15504 887.797237,1193.26395 886.619436,1191.49614 L887.51715,1190.89968 C885.75763,1188.24796 884.271014,1187.96051 883.3733,1188.55697 L885.13282,1191.20869 C883.337391,1192.4016 882.439677,1192.99806 883.926292,1193.28551 C883.617478,1194.76587 883.617478,1194.76587 884.515193,1194.16942 L886.001808,1194.45687 C885.692994,1195.93723 885.376999,1197.41759 886.245986,1200.66577 L887.732602,1200.95322 L888.314321,1201.83713 L889.140218,1208.92994 L893.592883,1209.79228 C893.003982,1208.91556 892.415081,1208.02447 893.319977,1207.42801 L893.319977,1207.42801 Z M878.891908,1170.63451 C877.85056,1170.26801 877.297567,1169.67155 877.297567,1169.67155 L876.708667,1168.78765 C875.810952,1169.3841 874.913237,1169.98056 875.502138,1170.86447 L877.879286,1170.55546 C878.267099,1170.62732 878.611822,1170.64169 878.891908,1170.63451 L878.891908,1170.63451 Z M109.62232,570.2464 C109.45714,570.325449 101.84452,565.977778 101.84452,565.977778 C102.591419,569.053486 102.591419,569.053486 103.625586,568.751664 C103.625586,568.751664 104.171397,570.232028 104.975749,571.633343 C105.751374,573.034658 106.534181,574.44316 106.534181,574.44316 C107.582712,580.695181 108.631243,583.69184 109.66541,586.659754 C109.643865,583.332528 109.643865,583.339714 110.67085,582.994775 L109.636683,580.034048 L108.602516,577.080507 L112.710458,582.304897 C113.730261,581.967144 112.703276,579.035162 109.62232,570.2464 L109.62232,570.2464 Z M110.728304,592.976451 L112.782275,595.577867 L110.706759,589.627667 L110.728304,592.976451 L110.728304,592.976451 Z M100.803171,566.265228 L101.84452,565.970592 L100.056273,563.189521 L100.803171,566.265228 L100.803171,566.265228 Z M121.436244,659.413164 L123.913936,661.597779 L123.167037,658.22025 L122.233414,658.752031 C121.9246,658.938873 121.651695,659.147274 121.436244,659.413164 L121.436244,659.413164 Z M224.594423,820.478177 L225.197687,819.587084 C222.296273,817.467146 221.678646,818.358239 218.770051,816.231114 C216.924349,818.875647 224.005522,821.383642 224.594423,820.478177 L224.594423,820.478177 Z M255.892344,838.264101 L253.32129,835.504588 L247.137832,831.853982 C244.064057,830.035865 240.968737,828.203376 238.462318,825.451049 C237.887781,826.363701 237.887781,826.363701 234.806824,824.531212 L230.548066,824.502467 C229.959165,825.407932 229.377446,826.306211 233.061667,827.26198 C236.164169,829.116028 239.281034,830.962889 239.841208,830.043052 C239.841208,830.043052 246.821836,834.167949 253.802465,838.300032 C257.299961,840.348108 260.797457,842.40337 263.418784,843.941224 C266.04011,845.479077 267.936083,846.219259 267.936083,846.219259 L265.178304,843.718451 L255.892344,838.264101 L255.892344,838.264101 Z M153.67497,537.513114 L151.980085,535.15603 L153.265612,540.380421 L153.67497,537.513114 L153.67497,537.513114 Z M289.2586,819.306821 C291.793746,821.678278 297.395485,825.472608 300.433352,826.88111 C297.840752,824.488094 295.291242,822.109452 292.274921,820.708136 L289.2586,819.306821 L289.2586,819.306821 Z M321.26033,803.281524 L324.470558,803.597719 L318.890364,800.996303 L321.26033,803.281524 L321.26033,803.281524 Z M309.726493,845.400029 C309.022685,845.098207 308.318877,844.796385 307.629432,844.44426 C307.629432,844.44426 308.548692,844.925738 309.726493,845.400029 L309.726493,845.400029 Z M320.168709,850.257922 L317.288841,848.102052 C317.676654,847.09598 317.676654,847.09598 320.92279,848.23859 L318.057285,846.089907 C314.81833,844.947296 314.423336,845.946182 314.028341,846.952255 C314.028341,846.952255 312.405273,846.377356 310.782205,845.802458 C310.415938,845.680292 310.056852,845.536567 309.71213,845.400029 C312.175459,846.449219 314.689059,847.354684 316.893846,849.100938 L323.055759,852.413791 L326.330622,853.563588 C326.704072,852.550329 323.43639,851.407719 320.168709,850.257922 L320.168709,850.257922 Z M335.250314,809.864113 L338.546722,809.871299 L332.715168,807.837595 L335.250314,809.864113 L335.250314,809.864113 Z M296.91431,843.064504 L293.768719,841.605698 C293.323452,842.583026 296.476226,844.049017 305.984819,848.425432 L306.394177,847.433732 C306.394177,847.433732 307.938246,848.245777 309.582859,848.799116 C311.22029,849.381201 312.857722,849.9561 312.857722,849.9561 C313.274261,848.885351 310.293849,847.03849 304.074482,843.991527 L307.629432,844.44426 L301.359793,841.548209 C304.060119,843.991527 306.401358,847.448105 296.91431,843.064504 L296.91431,843.064504 Z" id="Shape"></path>
        </g>
    </g>
</svg>